<svg width="560" height="63" viewBox="0 0 560 63" fill="none" xmlns="http://www.w3.org/2000/svg">
<path d="M430.429 52.6529C430.724 52.9284 430.881 53.3022 430.881 53.7547C430.881 54.2072 430.724 54.5614 430.429 54.8565C430.135 55.1518 429.78 55.2894 429.348 55.2894C428.917 55.2894 428.563 55.1518 428.267 54.8565C427.973 54.5614 427.817 54.2072 427.817 53.7547C427.817 53.3022 427.973 52.9284 428.267 52.6529C428.563 52.3774 428.937 52.2398 429.348 52.2398C429.761 52.2398 430.135 52.3774 430.429 52.6529ZM20.9664 20.8181C20.4949 19.972 19.8464 19.2833 19.0604 18.7521C18.2744 18.2208 17.4098 17.8076 16.4667 17.4732C15.5235 17.1584 14.5803 16.9026 13.6371 16.7058C12.6939 16.5287 11.8096 16.3517 11.0237 16.1943C10.2377 16.0368 9.58923 15.8401 9.11763 15.5843C8.64604 15.3285 8.39059 15.0137 8.39059 14.6005C8.39059 14.3251 8.48885 14.0693 8.68534 13.8332C8.88182 13.5971 9.21589 13.42 9.66782 13.2823C10.1198 13.1445 10.7486 13.0855 11.5346 13.0855C12.5956 13.0855 13.6764 13.2429 14.7768 13.5381C15.8968 13.8332 17.0365 14.2857 18.2351 14.876L20.6717 8.99303C19.4141 8.28473 17.9993 7.75347 16.4077 7.419C14.8161 7.0845 13.2244 6.90744 11.5935 6.90744C9.11763 6.90744 7.0544 7.28127 5.38417 8.00927C3.71393 8.73725 2.47599 9.72103 1.63105 10.9606C0.786111 12.2001 0.373465 13.5381 0.373465 15.0334C0.373465 16.3123 0.609262 17.3945 1.10051 18.2602C1.59175 19.1259 2.22055 19.8146 3.00654 20.3458C3.79254 20.877 4.67677 21.2902 5.61996 21.6246C6.56315 21.9394 7.526 22.1954 8.44953 22.3919C9.37308 22.5887 10.2573 22.7659 11.0433 22.9429C11.8293 23.1199 12.4777 23.3365 12.9493 23.5725C13.4209 23.8284 13.6764 24.1628 13.6764 24.6153C13.6764 24.8908 13.5781 25.1269 13.362 25.3237C13.1655 25.5205 12.8314 25.6777 12.3795 25.7762C11.9276 25.8745 11.3184 25.9337 10.5324 25.9337C9.19623 25.9337 7.8404 25.7369 6.4256 25.3237C5.01082 24.9106 3.73358 24.3792 2.59389 23.7299L-0.0195312 29.6522C1.19876 30.3802 2.7511 30.9901 4.61782 31.4428C6.48455 31.8953 8.44953 32.1314 10.4735 32.1314C12.969 32.1314 15.0519 31.7575 16.7025 31.0099C18.3531 30.2623 19.5911 29.2784 20.436 28.0389C21.2809 26.8191 21.6936 25.4614 21.6936 23.9858C21.6936 22.7266 21.4577 21.6639 20.9664 20.8181ZM39.9874 7.45835L50.5197 31.5609H42.1293L40.518 27.3503H31.3612L29.75 31.5609H21.497L32.0097 7.45835H39.9874ZM38.2582 21.5067L35.92 15.4269L33.5817 21.5067H38.2387H38.2582ZM62.2901 21.5263L56.5522 7.45835H47.8278L58.0063 31.5609H65.9841L76.1628 7.45835H68.185L62.2901 21.5263ZM84.9266 22.2543H95.1051V16.391H84.9266V13.5774H96.52V7.45835H76.9488V31.5609H96.9523V25.4418H84.9266V22.2739V22.2543ZM134.149 7.45835H126.231V18.4176L117.074 7.45835H110.412V31.5609H118.312V20.6015L127.468 31.5609H134.149V7.45835ZM163.251 14.4628C163.919 15.9778 164.273 17.6502 164.273 19.48C164.273 21.3099 163.938 22.9823 163.251 24.517C162.563 26.0517 161.62 27.3897 160.421 28.5308C159.223 29.6719 157.769 30.5376 156.118 31.1673C154.467 31.7968 152.66 32.0921 150.695 32.0921C148.73 32.0921 146.922 31.7772 145.271 31.1673C143.601 30.5376 142.166 29.6719 140.948 28.5308C139.73 27.3897 138.787 26.0517 138.119 24.517C137.451 22.9823 137.097 21.2902 137.097 19.48C137.097 17.6699 137.431 15.9778 138.119 14.4628C138.806 12.9478 139.75 11.6099 140.948 10.4687C142.166 9.32752 143.601 8.44211 145.271 7.83218C146.941 7.20257 148.73 6.90744 150.695 6.90744C152.66 6.90744 154.467 7.22223 156.137 7.83218C157.788 8.46179 159.223 9.32752 160.441 10.4687C161.659 11.6099 162.602 12.9478 163.27 14.4628H163.251ZM156.079 19.4997C156.079 18.5553 155.941 17.7093 155.666 16.9616C155.391 16.2139 154.998 15.5843 154.507 15.0727C154.015 14.5612 153.446 14.1677 152.797 13.8922C152.149 13.6168 151.441 13.479 150.675 13.479C149.909 13.479 149.221 13.6168 148.553 13.8922C147.904 14.1677 147.334 14.5612 146.823 15.0727C146.332 15.5843 145.939 16.2139 145.664 16.9616C145.389 17.7093 145.252 18.5553 145.252 19.4997C145.252 20.4441 145.389 21.2902 145.664 22.0379C145.939 22.7855 146.332 23.4152 146.823 23.9267C147.315 24.4383 147.885 24.8319 148.533 25.1072C149.182 25.3827 149.889 25.5205 150.655 25.5205C151.422 25.5205 152.109 25.3827 152.777 25.1072C153.426 24.8319 153.996 24.4383 154.507 23.9267C154.998 23.4152 155.391 22.7855 155.666 22.0379C155.941 21.2902 156.079 20.4441 156.079 19.4997ZM205.538 7.45835H197.835L193.394 21.3295L189.188 7.45835H181.722L177.281 21.1525L173.095 7.45835H164.744L172.447 31.5609H181.152L185.239 18.6734L189.13 31.5609H197.835L205.538 7.45835ZM203.219 27.429C203.219 28.7276 203.65 29.8096 204.535 30.6557C205.399 31.5017 206.48 31.9149 207.758 31.9149C209.035 31.9149 210.116 31.5017 211.001 30.6557C211.864 29.8096 212.297 28.7472 212.297 27.429C212.297 26.1107 211.864 25.0285 211.001 24.2219C210.135 23.4152 209.054 23.0217 207.758 23.0217C206.46 23.0217 205.399 23.4152 204.535 24.2219C203.67 25.0285 203.219 26.0911 203.219 27.429ZM282.152 31.5609H290.268V13.7545H297.321V7.45835H275.117V13.7545H282.172V31.5609H282.152ZM307.54 31.5609H299.424V7.45835H310.663C314.358 7.45835 317.168 8.26505 319.094 9.89811C321.019 11.5312 321.982 13.7348 321.982 16.5484C321.982 18.4176 321.53 20.0114 320.645 21.3493C319.86 22.5298 318.779 23.4348 317.444 24.1234L322.474 31.5017L332.967 7.45835H340.944L351.476 31.5609H343.086L341.475 27.3503H332.317L330.706 31.5609H313.866L309.78 25.5007H307.579V31.5609H307.54ZM334.537 21.5067H339.196L336.858 15.4269L334.518 21.5067H334.537ZM307.54 19.362H310.506C311.626 19.362 312.453 19.1062 313.003 18.5947C313.553 18.0831 313.808 17.3945 313.808 16.5287C313.808 15.663 313.532 14.9744 313.003 14.4628C312.472 13.9512 311.626 13.6955 310.506 13.6955H307.54V19.3423V19.362ZM363.227 21.5263L357.49 7.45835H348.765L358.942 31.5609H366.921L377.099 7.45835H369.122L363.227 21.5263ZM397.909 25.422H385.883V22.2543H396.061V16.391H385.883V13.5774H397.477V7.45835H377.906V31.5609H397.909V25.4418V25.422ZM420.016 25.2646H409.149V7.45835H401.033V31.5609H420.016V25.2646ZM470.024 7.45835L480.537 31.5609H472.147L470.535 27.3503H461.377L459.766 31.5609H432.571V7.45835H440.687V25.2646H451.552V31.4822L462.045 7.45835H470.024ZM468.295 21.5067L465.955 15.4269L463.617 21.5067H468.276H468.295ZM478.827 13.7545H485.88V31.5609H493.996V13.7545H501.051V7.45835H478.847V13.7545H478.827ZM511.112 22.2543H521.29V16.391H511.112V13.5774H522.705V7.45835H503.133V31.5609H523.158V25.4418H511.131V22.2739L511.112 22.2543ZM544.281 24.1234L549.35 31.5609H540.684L536.598 25.5007H534.397V31.5609H526.281V7.45835H537.52C541.215 7.45835 544.024 8.26505 545.951 9.89811C547.876 11.5312 548.839 13.7348 548.839 16.5484C548.839 18.4176 548.387 20.0114 547.502 21.3493C546.717 22.5298 545.636 23.4348 544.3 24.1234H544.281ZM540.645 16.5484C540.645 15.6827 540.371 14.9941 539.84 14.4825C539.309 13.9709 538.464 13.7151 537.344 13.7151H534.377V19.362H537.344C538.464 19.362 539.29 19.1062 539.84 18.5947C540.39 18.0831 540.645 17.3945 540.645 16.5287V16.5484ZM555.324 23.7103C553.987 23.7103 552.906 24.1039 552.062 24.8712C551.216 25.6582 550.784 26.6223 550.784 27.7634C550.784 28.9046 551.216 29.849 552.062 30.6754C552.906 31.4822 554.006 31.8953 555.324 31.8953C556.64 31.8953 557.78 31.4822 558.604 30.6754C559.45 29.8687 559.863 28.885 559.863 27.7634C559.863 26.6419 559.45 25.6582 558.604 24.8712C557.76 24.0841 556.679 23.7103 555.324 23.7103ZM558.428 22.333L559.98 7.45835H550.705L552.258 22.333H558.447H558.428ZM137.234 44.153L134.287 49.0523L131.359 44.153H128.647L132.911 51.2558V55.1713H135.466V51.2558L139.73 44.153H137.234ZM147.747 48.6785C148.14 49.3278 148.337 50.0753 148.337 50.9412C148.337 51.8068 148.14 52.5348 147.747 53.2037C147.354 53.8532 146.804 54.3646 146.096 54.7384C145.389 55.1124 144.603 55.2894 143.699 55.2894C142.795 55.2894 142.009 55.1124 141.302 54.7384C140.614 54.3646 140.064 53.8532 139.651 53.1841C139.239 52.5153 139.042 51.7675 139.042 50.9412C139.042 50.1147 139.239 49.3473 139.651 48.6785C140.044 48.0292 140.595 47.5175 141.302 47.1438C141.99 46.77 142.795 46.5928 143.699 46.5928C144.603 46.5928 145.389 46.77 146.096 47.1438C146.804 47.5175 147.354 48.0292 147.747 48.6785ZM145.861 50.9412C145.861 50.4493 145.762 50.036 145.586 49.682C145.389 49.3278 145.134 49.072 144.819 48.8752C144.505 48.698 144.132 48.5998 143.719 48.5998C143.306 48.5998 142.933 48.698 142.618 48.8752C142.304 49.0523 142.029 49.3278 141.852 49.682C141.675 50.036 141.557 50.4493 141.557 50.9412C141.557 51.433 141.656 51.8462 141.852 52.2004C142.049 52.5544 142.304 52.8299 142.618 53.0071C142.933 53.1841 143.306 53.2824 143.719 53.2824C144.132 53.2824 144.505 53.1841 144.819 53.0071C145.134 52.8299 145.389 52.5544 145.586 52.2004C145.782 51.8462 145.861 51.433 145.861 50.9412ZM156.059 50.882C156.059 51.3937 155.98 51.8266 155.803 52.161C155.627 52.4955 155.41 52.7512 155.116 52.9086C154.821 53.066 154.487 53.1448 154.114 53.1448C153.563 53.1448 153.151 52.9873 152.856 52.6529C152.561 52.3185 152.404 51.8068 152.404 51.0986V46.6912H149.948V51.4724C149.948 52.338 150.105 53.066 150.419 53.617C150.734 54.1876 151.146 54.6008 151.697 54.8763C152.247 55.1518 152.876 55.2696 153.583 55.2696C154.231 55.2696 154.841 55.1124 155.371 54.8171C155.686 54.6401 155.961 54.404 156.196 54.1285V55.1518H158.535V46.6912H156.079V50.882H156.059ZM160.578 48.6193H162.327L162.504 44.153H160.421L160.578 48.6193ZM164.41 55.1713H166.866V43.4842H164.41V55.1713ZM169.146 55.1713H171.602V43.4842H169.146V55.1713ZM186.025 48.5013H181.034V44.153H178.479V55.1713H181.034V50.6459H186.025V55.1713H188.579V44.153H186.025V48.5013ZM197.422 47.498C198.128 48.1079 198.483 49.0523 198.483 50.3313V55.1713H196.184V54.0498C196.008 54.3646 195.771 54.6597 195.437 54.8565C194.965 55.132 194.356 55.2894 193.61 55.2894C192.961 55.2894 192.391 55.1713 191.92 54.955C191.448 54.7384 191.095 54.4238 190.839 54.0302C190.584 53.6366 190.466 53.2037 190.466 52.7118C190.466 52.22 190.584 51.7675 190.839 51.3937C191.075 51.0199 191.468 50.7246 191.998 50.5083C192.529 50.2919 193.236 50.1934 194.081 50.1934H196.027C196.027 49.6622 195.869 49.249 195.555 48.9735C195.241 48.6785 194.749 48.5406 194.081 48.5406C193.629 48.5406 193.197 48.6193 192.765 48.7572C192.332 48.8948 191.959 49.0916 191.645 49.3278L190.761 47.616C191.232 47.2814 191.782 47.0257 192.431 46.8487C193.079 46.6715 193.747 46.5928 194.415 46.5928C195.712 46.5928 196.715 46.888 197.422 47.498ZM196.047 51.6298H194.376C193.806 51.6298 193.394 51.7281 193.177 51.9051C192.961 52.1019 192.863 52.338 192.863 52.6331C192.863 52.948 192.981 53.1841 193.236 53.3809C193.472 53.5579 193.806 53.6564 194.238 53.6564C194.671 53.6564 195.025 53.5579 195.339 53.3611C195.673 53.1645 195.908 52.889 196.047 52.4955V51.6298ZM204.161 52.4561L201.823 46.6912H199.288L202.845 55.1518H205.379L208.937 46.6912H206.579L204.142 52.4561H204.161ZM217.425 48.6193C217.819 49.2686 218.014 50.0558 218.014 50.9608C218.014 51.0592 218.014 51.1575 218.014 51.2756C218.014 51.3937 218.014 51.5118 217.995 51.61H211.61C211.668 51.8266 211.727 52.043 211.845 52.2398C212.04 52.5938 212.336 52.8497 212.71 53.0465C213.082 53.2431 213.515 53.3218 214.026 53.3218C214.478 53.3218 214.872 53.2628 215.205 53.1252C215.539 52.9873 215.853 52.771 216.148 52.4955L217.445 53.9121C217.051 54.3646 216.561 54.6991 215.972 54.9352C215.381 55.1713 214.713 55.2894 213.947 55.2894C212.984 55.2894 212.14 55.0926 211.412 54.7188C210.685 54.345 210.135 53.8334 209.722 53.1645C209.33 52.5152 209.133 51.7675 209.133 50.9214C209.133 50.0753 209.33 49.3278 209.722 48.6785C210.116 48.0292 210.646 47.5175 211.333 47.1438C212.021 46.77 212.788 46.5928 213.652 46.5928C214.517 46.5928 215.224 46.77 215.892 47.1242C216.561 47.4782 217.092 47.97 217.464 48.6391L217.425 48.6193ZM215.676 50.1934C215.637 49.9377 215.579 49.682 215.461 49.4654C215.283 49.131 215.028 48.8753 214.713 48.698C214.4 48.521 214.026 48.4227 213.613 48.4227C213.201 48.4227 212.827 48.521 212.512 48.698C212.199 48.8753 211.942 49.1506 211.766 49.4654C211.649 49.682 211.59 49.9179 211.551 50.1738H215.676V50.1934ZM230.158 50.882C230.158 51.3937 230.08 51.8266 229.904 52.161C229.725 52.4955 229.51 52.7512 229.214 52.9086C228.921 53.066 228.586 53.1448 228.214 53.1448C227.664 53.1448 227.25 52.9873 226.955 52.6529C226.661 52.3185 226.504 51.8068 226.504 51.0986V46.6912H224.047V51.4724C224.047 52.338 224.204 53.066 224.519 53.617C224.834 54.1876 225.245 54.6008 225.796 54.8763C226.346 55.1518 226.974 55.2696 227.683 55.2696C228.331 55.2696 228.94 55.1124 229.471 54.8171C229.784 54.6401 230.06 54.404 230.295 54.1285V55.1518H232.635V46.6912H230.178V50.882H230.158ZM243.539 48.6391C243.913 49.2884 244.09 50.0558 244.09 50.9412C244.09 51.8266 243.913 52.5938 243.539 53.2431C243.167 53.8923 242.676 54.404 242.028 54.7582C241.397 55.1124 240.671 55.2894 239.886 55.2894C239.177 55.2894 238.548 55.132 238.018 54.8171C237.763 54.6795 237.546 54.4827 237.35 54.2663V58.221H234.895V46.6912H237.232V47.6947C237.448 47.4388 237.685 47.2225 237.979 47.0455C238.509 46.7306 239.157 46.5732 239.886 46.5732C240.69 46.5732 241.397 46.7502 242.028 47.1044C242.656 47.4586 243.167 47.97 243.539 48.6193V48.6391ZM241.615 50.9412C241.615 50.4493 241.517 50.036 241.319 49.682C241.123 49.3278 240.867 49.072 240.553 48.8752C240.238 48.698 239.866 48.5998 239.453 48.5998C239.04 48.5998 238.687 48.698 238.353 48.8752C238.037 49.0523 237.763 49.3278 237.587 49.682C237.389 50.036 237.291 50.4493 237.291 50.9412C237.291 51.433 237.389 51.8462 237.587 52.2004C237.783 52.5544 238.037 52.8299 238.353 53.0071C238.666 53.1841 239.04 53.2824 239.453 53.2824C239.866 53.2824 240.219 53.1841 240.553 53.0071C240.867 52.8299 241.143 52.5544 241.319 52.2004C241.497 51.8462 241.615 51.433 241.615 50.9412ZM253.974 53.3415C253.659 53.3415 253.404 53.2431 253.208 53.0465C253.03 52.8497 252.932 52.5742 252.932 52.22V48.58H255.035V46.6912H252.932V44.8023H250.477V46.6912H249.159V48.58H250.477V52.2593C250.477 53.2628 250.751 54.0302 251.301 54.522C251.851 55.0337 252.638 55.2894 253.639 55.2894C254.013 55.2894 254.387 55.25 254.72 55.1518C255.074 55.073 255.37 54.9352 255.624 54.7582L254.976 53.0267C254.7 53.2431 254.367 53.3415 253.974 53.3415ZM264.821 48.6785C265.213 49.3278 265.411 50.0753 265.411 50.9412C265.411 51.8068 265.213 52.5348 264.821 53.2037C264.428 53.8532 263.878 54.3646 263.171 54.7384C262.462 55.1124 261.677 55.2894 260.772 55.2894C259.869 55.2894 259.082 55.1124 258.375 54.7384C257.688 54.3646 257.138 53.8532 256.725 53.1841C256.312 52.5153 256.116 51.7675 256.116 50.9412C256.116 50.1147 256.312 49.3473 256.725 48.6785C257.118 48.0292 257.669 47.5175 258.375 47.1438C259.063 46.77 259.869 46.5928 260.772 46.5928C261.677 46.5928 262.462 46.77 263.171 47.1438C263.878 47.5175 264.428 48.0292 264.821 48.6785ZM262.934 50.9412C262.934 50.4493 262.836 50.036 262.66 49.682C262.462 49.3278 262.207 49.072 261.892 48.8752C261.579 48.698 261.205 48.5998 260.792 48.5998C260.38 48.5998 260.007 48.698 259.691 48.8752C259.378 49.0523 259.102 49.3278 258.926 49.682C258.749 50.036 258.63 50.4493 258.63 50.9412C258.63 51.433 258.73 51.8462 258.926 52.2004C259.121 52.5544 259.378 52.8299 259.691 53.0071C260.007 53.1841 260.38 53.2824 260.792 53.2824C261.205 53.2824 261.579 53.1841 261.892 53.0071C262.207 52.8299 262.462 52.5544 262.66 52.2004C262.855 51.8462 262.934 51.433 262.934 50.9412ZM272.681 55.1713H275.234V44.153H270.48V46.1994H272.681V55.1713ZM282.054 48.6785C281.895 48.9146 281.641 49.1899 281.326 49.5048L277.083 53.5186V55.1713H285.414V53.0858H280.678L283.213 50.705C283.724 50.2132 284.116 49.7803 284.392 49.3867C284.666 48.9933 284.844 48.6193 284.923 48.2653C285.001 47.9111 285.06 47.5569 285.06 47.2027C285.06 46.5338 284.883 45.9632 284.549 45.4714C284.216 44.9795 283.724 44.6055 283.115 44.3498C282.506 44.0941 281.778 43.9563 280.973 43.9563C279.99 43.9563 279.105 44.1335 278.359 44.5072C277.613 44.881 277.024 45.3729 276.611 46.0026L278.457 47.2027C278.733 46.8289 279.047 46.5534 279.44 46.3764C279.834 46.1994 280.264 46.1009 280.736 46.1009C281.306 46.1009 281.758 46.219 282.054 46.4551C282.348 46.6912 282.506 47.0257 282.506 47.4586C282.506 47.6356 282.485 47.8324 282.426 48.0292C282.367 48.226 282.269 48.4423 282.093 48.6785H282.054ZM291.564 44.153V55.1713H293.941V48.698L297.184 54.0104H298.323L301.566 48.58V55.1713H303.963V44.153H301.84L297.793 51.0001L293.667 44.153H291.564ZM314.475 48.6785C314.869 49.3278 315.065 50.0753 315.065 50.9412C315.065 51.8068 314.869 52.5348 314.475 53.2037C314.082 53.8532 313.532 54.3646 312.825 54.7384C312.118 55.1124 311.333 55.2894 310.428 55.2894C309.523 55.2894 308.738 55.1124 308.031 54.7384C307.323 54.3646 306.792 53.8532 306.381 53.1841C305.968 52.5153 305.77 51.7675 305.77 50.9412C305.77 50.1147 305.968 49.3473 306.381 48.6785C306.772 48.0292 307.323 47.5175 308.031 47.1438C308.719 46.77 309.523 46.5928 310.428 46.5928C311.333 46.5928 312.118 46.77 312.825 47.1438C313.532 47.5175 314.082 48.0292 314.475 48.6785ZM312.59 50.9412C312.59 50.4493 312.492 50.036 312.314 49.682C312.118 49.3278 311.861 49.072 311.548 48.8752C311.233 48.698 310.861 48.5998 310.448 48.5998C310.034 48.5998 309.66 48.698 309.347 48.8752C309.032 49.0523 308.758 49.3278 308.582 49.682C308.384 50.036 308.286 50.4493 308.286 50.9412C308.286 51.433 308.384 51.8462 308.582 52.2004C308.777 52.5544 309.032 52.8299 309.347 53.0071C309.66 53.1841 310.034 53.2824 310.448 53.2824C310.861 53.2824 311.233 53.1841 311.548 53.0071C311.861 52.8299 312.118 52.5544 312.314 52.2004C312.511 51.8462 312.59 51.433 312.59 50.9412ZM325.342 55.1713V50.3313C325.342 49.4654 325.184 48.7572 324.89 48.2062C324.575 47.6554 324.164 47.242 323.633 46.9863C323.102 46.7306 322.513 46.5928 321.824 46.5928C321.097 46.5928 320.469 46.7502 319.899 47.0455C319.564 47.2225 319.29 47.4782 319.034 47.7537V46.7108H316.696V55.1713H319.153V50.9805C319.153 50.4493 319.231 50.0164 319.408 49.682C319.584 49.3473 319.821 49.0916 320.134 48.9342C320.449 48.7768 320.804 48.698 321.195 48.698C321.726 48.698 322.159 48.8555 322.454 49.1899C322.748 49.5245 322.905 50.0164 322.905 50.705V55.1911H325.362L325.342 55.1713ZM328.702 54.522C329.253 55.0337 330.038 55.2894 331.04 55.2894C331.414 55.2894 331.786 55.25 332.121 55.1518C332.476 55.073 332.769 54.9352 333.026 54.7582L332.376 53.0267C332.102 53.2431 331.767 53.3415 331.375 53.3415C331.06 53.3415 330.805 53.2431 330.608 53.0465C330.431 52.8497 330.333 52.5742 330.333 52.22V48.58H332.436V46.6912H330.333V44.8023H327.876V46.6912H326.56V48.58H327.876V52.2593C327.876 53.2628 328.152 54.0302 328.702 54.522ZM343.047 55.1713V50.3313C343.047 49.4654 342.888 48.7572 342.595 48.2062C342.28 47.6554 341.868 47.242 341.338 46.9863C340.807 46.7306 340.218 46.5928 339.528 46.5928C338.802 46.5928 338.173 46.7502 337.604 47.0455C337.328 47.2027 337.073 47.3799 336.858 47.5963V43.5038H334.4V55.1911H336.858V51.0001C336.858 50.4689 336.936 50.036 337.112 49.7015C337.288 49.3671 337.525 49.1114 337.839 48.954C338.154 48.7965 338.508 48.7178 338.9 48.7178C339.431 48.7178 339.863 48.8752 340.157 49.2097C340.453 49.5441 340.609 50.036 340.609 50.7246V55.2107H343.067L343.047 55.1713ZM347.349 48.6587C347.605 48.521 347.999 48.4423 348.549 48.4423C348.941 48.4423 349.334 48.4817 349.747 48.58C350.161 48.6785 350.572 48.8359 350.985 49.072L351.811 47.3208C351.418 47.0848 350.907 46.9076 350.317 46.7895C349.728 46.6715 349.139 46.5928 348.549 46.5928C347.723 46.5928 347.036 46.7108 346.446 46.947C345.857 47.1831 345.424 47.498 345.109 47.9111C344.796 48.3243 344.639 48.7965 344.639 49.3278C344.639 49.8196 344.737 50.2132 344.913 50.5083C345.089 50.8033 345.346 51.0593 345.639 51.2363C345.935 51.4133 346.27 51.5511 346.642 51.6298C347.016 51.7281 347.37 51.7873 347.742 51.8462C348.116 51.9051 348.43 51.9445 348.745 52.0036C349.041 52.0625 349.295 52.1413 349.471 52.2398C349.65 52.338 349.747 52.4955 349.747 52.6923C349.747 52.9284 349.63 53.1252 349.393 53.2628C349.158 53.4005 348.765 53.4596 348.195 53.4596C347.684 53.4596 347.153 53.3809 346.622 53.2431C346.092 53.0858 345.639 52.889 345.248 52.6529L344.422 54.404C344.815 54.6597 345.346 54.8763 346.013 55.0533C346.681 55.2303 347.37 55.309 348.077 55.309C348.921 55.309 349.65 55.1911 350.239 54.955C350.828 54.7188 351.281 54.404 351.594 54.0104C351.909 53.5973 352.066 53.1448 352.066 52.6135C352.066 52.1413 351.968 51.7479 351.79 51.433C351.613 51.138 351.359 50.9018 351.063 50.7246C350.77 50.5476 350.435 50.41 350.061 50.3313C349.689 50.2328 349.334 50.1738 348.96 50.1147C348.588 50.0558 348.273 50.0164 347.96 49.9573C347.664 49.8983 347.41 49.8196 347.231 49.7015C347.055 49.5835 346.957 49.4458 346.957 49.2293C346.957 49.0129 347.075 48.8161 347.329 48.6785L347.349 48.6587ZM361.852 53.3415C361.537 53.3415 361.282 53.2431 361.085 53.0465C360.908 52.8497 360.81 52.5742 360.81 52.22V48.58H362.913V46.6912H360.81V44.8023H358.353V46.6912H357.037V48.58H358.353V52.2593C358.353 53.2628 358.629 54.0302 359.179 54.522C359.73 55.0337 360.515 55.2894 361.517 55.2894C361.891 55.2894 362.263 55.25 362.598 55.1518C362.953 55.073 363.246 54.9352 363.503 54.7582L362.853 53.0267C362.579 53.2431 362.244 53.3415 361.852 53.3415ZM372.678 48.6785C373.072 49.3278 373.267 50.0753 373.267 50.9412C373.267 51.8068 373.072 52.5348 372.678 53.2037C372.285 53.8532 371.734 54.3646 371.027 54.7384C370.321 55.1124 369.533 55.2894 368.631 55.2894C367.726 55.2894 366.941 55.1124 366.234 54.7384C365.525 54.3646 364.995 53.8532 364.584 53.1841C364.17 52.5153 363.973 51.7675 363.973 50.9412C363.973 50.1147 364.17 49.3473 364.584 48.6785C364.975 48.0292 365.525 47.5175 366.234 47.1438C366.921 46.77 367.726 46.5928 368.631 46.5928C369.533 46.5928 370.321 46.77 371.027 47.1438C371.734 47.5175 372.285 48.0292 372.678 48.6785ZM370.812 50.9412C370.812 50.4493 370.714 50.036 370.536 49.682C370.34 49.3278 370.084 49.072 369.77 48.8752C369.455 48.698 369.083 48.5998 368.67 48.5998C368.257 48.5998 367.883 48.698 367.57 48.8752C367.254 49.0523 366.98 49.3278 366.804 49.682C366.606 50.036 366.508 50.4493 366.508 50.9412C366.508 51.433 366.606 51.8462 366.804 52.2004C367 52.5544 367.254 52.8299 367.57 53.0071C367.883 53.1841 368.257 53.2824 368.67 53.2824C369.083 53.2824 369.455 53.1841 369.77 53.0071C370.084 52.8299 370.34 52.5544 370.536 52.2004C370.734 51.8462 370.812 51.433 370.812 50.9412ZM378.298 46.2387H381.816V55.1713H384.37V46.2387H387.888V44.153H378.298V46.2387ZM391.248 47.8913V46.7108H388.908V55.1713H391.366V51.1771C391.366 50.3706 391.561 49.7803 391.975 49.3867C392.388 48.9933 392.938 48.8161 393.606 48.8161C393.684 48.8161 393.782 48.8161 393.86 48.8161C393.939 48.8161 394.038 48.8161 394.156 48.8555V46.5928C393.349 46.5928 392.681 46.7502 392.131 47.0455C391.759 47.242 391.483 47.5569 391.248 47.8913ZM401.485 47.498C402.192 48.1079 402.546 49.0523 402.546 50.3313V55.1713H400.247V54.0498C400.071 54.3646 399.834 54.6597 399.501 54.8565C399.029 55.132 398.42 55.2894 397.673 55.2894C397.024 55.2894 396.455 55.1713 395.983 54.955C395.511 54.7384 395.158 54.4238 394.902 54.0302C394.647 53.6366 394.53 53.2037 394.53 52.7118C394.53 52.22 394.647 51.7675 394.902 51.3937C395.139 51.0199 395.53 50.7246 396.061 50.5083C396.592 50.2919 397.3 50.1934 398.144 50.1934H400.091C400.091 49.6622 399.932 49.249 399.619 48.9735C399.304 48.6785 398.812 48.5406 398.144 48.5406C397.692 48.5406 397.259 48.6193 396.829 48.7572C396.396 48.8948 396.022 49.0916 395.709 49.3278L394.824 47.616C395.295 47.2814 395.846 47.0257 396.494 46.8487C397.142 46.6715 397.81 46.5928 398.479 46.5928C399.775 46.5928 400.778 46.888 401.485 47.498ZM400.091 51.6298H398.42C397.851 51.6298 397.438 51.7281 397.22 51.9051C397.005 52.1019 396.907 52.338 396.907 52.6331C396.907 52.948 397.024 53.1841 397.281 53.3809C397.516 53.5579 397.851 53.6564 398.281 53.6564C398.714 53.6564 399.069 53.5579 399.382 53.3611C399.717 53.1645 399.952 52.889 400.091 52.4955V51.6298ZM408.224 52.4561L405.887 46.6912H403.351L406.909 55.1518H409.442L413 46.6912H410.643L408.205 52.4561H408.224ZM421.469 48.6193C421.862 49.2686 422.058 50.0558 422.058 50.9608C422.058 51.0592 422.058 51.1575 422.058 51.2756C422.058 51.3937 422.058 51.5118 422.038 51.61H415.653C415.712 51.8266 415.771 52.043 415.888 52.2398C416.084 52.5938 416.38 52.8497 416.754 53.0465C417.126 53.2431 417.558 53.3218 418.069 53.3218C418.522 53.3218 418.915 53.2628 419.248 53.1252C419.583 52.9873 419.896 52.771 420.192 52.4955L421.488 53.9121C421.095 54.3646 420.605 54.6991 420.016 54.9352C419.424 55.1713 418.757 55.2894 417.991 55.2894C417.028 55.2894 416.184 55.0926 415.455 54.7188C414.729 54.345 414.179 53.8334 413.766 53.1645C413.374 52.5152 413.176 51.7675 413.176 50.9214C413.176 50.0753 413.374 49.3278 413.766 48.6785C414.159 48.0292 414.69 47.5175 415.377 47.1438C416.064 46.77 416.832 46.5928 417.695 46.5928C418.561 46.5928 419.268 46.77 419.935 47.1242C420.605 47.4782 421.136 47.97 421.508 48.6391L421.469 48.6193ZM419.72 50.1934C419.681 49.9377 419.622 49.682 419.505 49.4654C419.326 49.131 419.072 48.8753 418.757 48.698C418.443 48.521 418.069 48.4227 417.656 48.4227C417.245 48.4227 416.871 48.521 416.556 48.698C416.243 48.8753 415.986 49.1506 415.81 49.4654C415.692 49.682 415.634 49.9179 415.594 50.1738H419.72V50.1934ZM423.689 55.1713H426.146V43.4842H423.689V55.1713ZM224.519 25.2252C223.064 23.7692 223.064 21.3886 224.519 19.9129L243.324 1.10317C244.07 0.355505 245.073 -0.0380032 246.134 0.00134768L257.669 0.473559C260.163 0.571935 262.168 2.57883 262.266 5.07761L262.738 16.6271C262.777 17.6699 262.384 18.693 261.638 19.4407L242.852 38.2505C241.397 39.7065 239.02 39.7065 237.546 38.2505L224.519 25.2057V25.2252ZM255.644 7.12386C256.588 8.06828 258.101 8.06828 259.043 7.12386C259.987 6.17944 259.987 4.66442 259.043 3.72C258.101 2.77558 256.588 2.77558 255.644 3.72C254.7 4.66442 254.7 6.17944 255.644 7.12386ZM232.085 21.2508C232.085 22.2345 232.87 23.0217 233.853 23.0217H244.896L240.455 27.4684C239.766 28.157 239.766 29.2784 240.455 29.967C240.808 30.3212 241.26 30.4787 241.713 30.4787C242.165 30.4787 242.617 30.3015 242.97 29.967L250.418 22.51C251.105 21.8214 251.105 20.7 250.418 20.0114L242.97 12.5543C242.282 11.8657 241.162 11.8657 240.475 12.5543C239.786 13.2429 239.786 14.3644 240.475 15.0531L244.916 19.4997H233.873C232.89 19.4997 232.104 20.2867 232.104 21.2706L232.085 21.2508ZM352.714 58.3784C325.284 56.8043 297.675 57.0996 270.402 60.5822C269.458 60.7001 269.693 62.0971 270.558 61.9986C297.754 59.4802 325.205 60.1295 352.361 62.6479C355.23 62.8645 355.524 58.6145 352.694 58.3784H352.714Z" fill="white"/>
</svg>
